<?xml version="1.0" encoding="utf-8"?>
<!-- Generator: Adobe Illustrator 18.0.0, SVG Export Plug-In . SVG Version: 6.00 Build 0)  -->
<!DOCTYPE svg PUBLIC "-//W3C//DTD SVG 1.1//EN" "http://www.w3.org/Graphics/SVG/1.1/DTD/svg11.dtd">
<svg version="1.1" id="Слой_2" xmlns="http://www.w3.org/2000/svg" xmlns:xlink="http://www.w3.org/1999/xlink" x="0px" y="0px"
	 viewBox="271 0 1429 1200" enable-background="new 271 0 1429 1200" xml:space="preserve">
<path fill="#20B2AA"    d="M1398.9,611.9c-28.2,0-55.6,4.1-81.5,11.6
	c-0.8-4.8-2.8-9.3-7.3-11.6c-9.6-4.8-16.4,3.8-20.2-4.8s-2.8-20-9.6-18.2c-6.2,1.7-4.2,6.6-6.1,20.8l-32.3-68.8c0,0,8.6,2.8,21.2-1
	c12.4-3.8,44.2-13.4,52.8-17.2c8.6-3.8,13.4-10.6,13.4-10.6l-1,11.6l8.6-1V515l16.4-1l1,9.6h8.6c0,0-2.8-5.8,2.8-12.4
	c5.8-6.8,14.4,4.8,18.2,10.6c3.8,5.8,1,15.4,1,15.4l8.6,3.8l5.4-9.6h51.2l2.8-9.6c0,0,10.6,3.8,12.4,9.6c1.8,5.8,8.9,2.1-19.2,28.7
	c-28.1,26.5-21.2,25-26.1,29.8s-0.8,5.8,4.9-4.8c5.8-10.6,8.6-8.6,26.8-18.2s22-28.8,24-43.2c2-14.4-11.6-13.4-2.8-15.4
	c4.9-1.1,16.4-5.4,25.1-8.9c1.7,1.3,3.4,2.8,6.2,4.4c7.3,3.8,10.2,1.7,17.4-0.4c0.1-3.8,1.8-8,2.3-12.1c6.5,6.9,12.3,5.5,16,3.5
	c5.1-2.5,2.5-12.7,2.1-16.8c7.3,1,11.7-0.1,13.7-4c2.5-4.8,0-12.4-2.7-16.7c2.8,4.4,8.8,0.4,10.9-3c2.8-4.5,1.6-12-1.3-16
	c7.1-0.6,12-4.2,13.1-8.8c2.1-9.3-3.2-12.7-7.3-19.2c3.8-1,6.2-6.6,5.2-10.4c-16.1-1.4-32.3,0.6-47.9,1.8
	c-14.3,1.1-31.2-0.6-44.2,5.1c-27.4,12-59.7,9.3-90.2,9.3c-21.2,0-43.6-3.7-63.4-9.6c-9.5-2.8-19.2-4.7-28.8-7.8
	c-8.9-2.8-18.6-6.8-27.7-8.8c-3.7-11.6-8.2-24.8-14.3-35.6c-6.5-11.4-15.1-21.7-20.6-33.5c-2.8-5.8-0.1-10.2,2-16.5
	c2.4-7.6,6.1-34.9,7.1-40.9c0.6-3.2,0.4-8.3,0-11.6c-0.6-3.1-2.7-6.1-1.8-9.5c7.1-0.6,36.1-6.4,42.9-4.8
	c25.1,9.5,43.6,29.2,52.8,17.9c1.8-2.3,2.1-6.2,3.8-8.8s4-5.5,6.1-7.5c2.3-2.1,6.2-2.4,4.8-6.8c-0.8-2.5-5.1-2.8-6.5-5.9
	c-4.5-9.6,10.9-4.1,15.1-3.5c11.7,1.3,8.6-16.1,16.4-18.2c1.4-0.4,11.6,7.6,14.1,5.5c5.1-4.1,3.7-14.7,3.1-20.9
	c-0.7-8,0.4-13.4,3.8-21.2c2.4-5.5,14-24.3,14-24.3l22.3,11.4c0,0,0,0,2.3-9.2c12.4-51.8-16.7-91.3-38.4-109.7
	c-11.9-10-69.2-81-254.4,12.6c-7.1,3.5-11,5.5-9.5,13.6c1.4,7.2,6.9,13.8,7.8,21c3.7,1.6,8.2,2.7,11.3,3.8c-8.3,1-38.3,0.4-45.3-1.6
	c-15.1-4.2-112.1-32.9-289.7,54.4c-13,6.4-25.4,12.7-37.4,21.3c-11.7,8.5-77.4,49.8-96,108.4c-20.2,63.4-2.1,82.7,4,87
	c-6.4-3.1-46-3.8-54.9,0.1c-4.8,2.1-4.5,17.2-3.1,18.8c1.7,2,14.7,0.4,17.8,4.2c2.1,2.7,3.1,6.2,5.5,8.6
	c2.8,2.8,25.1,12.1,28.5,13.8c2.3,1.1,4.4,2.5,6.5,3.8c-4.2,0.8-6.9,2.1-7.2,3.7c-1,7.6,12.4,20.2,19.2,31.6
	c6.8,11.6,31.6,109.4,31.6,109.4s-7.6,7.6-3.8,8.6c3.8,0.8,6.8,8.8,6.8,8.8s19.8,68.9,20.8,79.5c0.1,1.8-5.6,9.7-15.2,21.5
	c-48.7-36.3-109-57.7-174.4-57.7c-161.5,0-292.5,131-292.5,292.5s131,292.5,292.5,292.5c110,0,205.8-60.8,255.8-150.6l38.1,3.4
	c9.3,3,19.2,4.7,29.5,4.7c52.9,0,96-42.9,96-96c0-3.7-0.3-7.2-0.6-10.7l103.3-31.5l-5.4-14.5c1.8-1,3.7-1.6,5.4-1.7
	c6.1-0.4,10.4-0.7,15.2-2.7c0,2.4-0.1,4.8-0.1,7.2c0,161.5,131,292.5,292.5,292.5s292.5-131,292.5-292.5S1560.4,611.9,1398.9,611.9z
	 M946.6,307.8c7.9-0.6,37.1-2.4,44.9-4.1c7.6-1.6,15.7-0.8,22.9,1.1c13.4,3.7,28.2,6.8,43.3,5.5c15-1.3,29.6-4.1,44-6.8
	c7.2-1.3,42.4-4.8,42.4-4.8s6.5,14.1,6.9,19.1c3.7,42.5,47.3,133,53.2,146.3c6.2,14.1,10,26.5,26.1,31.8c8.2,2.5,17.2,3.1,26.3,3.1
	c-1.3,3.7-2.8,6.4-5.2,7.2c-12.4,4.8-58.6,0-66.2,2c-7.6,2-27.8,19.2-57.6,30.8c-1.4,0.6-3.5,1.1-6.2,1.6c2.1-2.8,4.7-5.4,6.5-8.3
	c4.2-6.5,8.5-16.5,9.3-24c1.8-15.8-7.6-29.5-15.7-42.1c-15.4-24.1-35.7-45.9-56.6-65.2c-20.5-19.1-42.1-36.8-65.8-51.4
	c-12.6-7.6-63-32.9-75-40.4C928.6,306.8,941.2,308.2,946.6,307.8z M986.5,805c1-6.8,3.4-13.4,5.8-20.3c4.5-12.7,7.5-25.8,16.1-37.6
	c8.8-12,61.8-108.6,70-124.5c3.8-7.5,14.1-27.2,23.4-45.3c21.5,3.8,38,9.5,45.9,17.5c4.5,4.5-4.8,23-4.8,23L986.5,805z M589.8,958.4
	c21.7-8.3,37.1-29.4,37.1-54.1c0-11-3.1-21.3-8.5-30.1l9.3-0.3c-0.7,2-1.1,4-1.1,5.6c0.3,11.9,15.7,20.2,24,26.7
	c9.9,7.6,20,14.3,29.9,22c10.6,8.3,19.6,19.9,28.8,29.8c2.1,2.3,4.5,4.1,7.1,5.8l-6.4,24.3l52.8,28.8l18.2-12.4l10.7-2.1
	c4.7,1.7,9.5,3.1,14.1,4.4c-4.4,10.2-9.5,20-15.1,29.5l-226.3-19.5c3-3.7,3.8-8.3,4.4-14.3c1-10.6,6.8-19.2,6.8-19.2
	s7.6,1.4,11.6-8.3C589.8,968.3,590.7,963.7,589.8,958.4z M759.2,682.2l3.7-4.1c0,0,2-8.6,12.4,9.6c0.6,0.8,1.1,2.3,2,3.8
	c-0.8,1.6-1.7,3.1-2.5,4.8C769.8,691.5,764.6,686.7,759.2,682.2z M797.8,809.8c2.3-3.7,4.5-7.2,7.1-10.7c8.3,18.6,14.5,38.4,18.2,59
	l-56.2,2.8c1.3-4.4,3.8-8,6.9-12.7C782.4,835.6,790,822.6,797.8,809.8z M826.7,888.6c-17.4,16.4-28.7,39.2-29.9,64.8
	c-13.8-18.9-21.6-42.1-27-64.2c-1.7-6.8-3.7-12.7-3.8-20l58.6-2.1C825.6,874.2,826.3,881.2,826.7,888.6z M825.6,628.4
	c-11.9-35.9-20.3-61.7-20.3-61.7s0,0,56.3,2c10,0.3,24.3,0.3,41.2,0.1c-24.3,15.7-46,34.4-68.8,52.7
	C831.1,623.7,828.4,626,825.6,628.4z M752.7,411.1c2.8,3.4,5.6,7.8,7.2,9.7c9.5,12.3,47.6,67.6,52.8,73.8
	c7.1,8.5,35.3,42.9,46.4,54.6c-37,0.1-62.5,0.1-62.5,0.1v-7.6l-9.6-10.6L752.7,411.1z M756.6,726.9c-16.8,27-36.4,56-41.8,63.4
	c-8.5,11.6-20.9,21.7-33.2,29.1c-12.4,7.5-23.7,13.4-33.9,24.7c-4.5,5.1-8.9,10.3-12.7,16.1c-1.3,2-3,4.7-4.5,7.5l-16.1,0.8
	c-4-4.9-8.6-9.3-14-12.8l135.7-148.2C743.3,713.6,750.1,720.1,756.6,726.9z M569.1,1162.4c-142.6,0-258.2-115.6-258.2-258.2
	S426.5,646,569.1,646c56.9,0,109.4,18.4,152,49.6c-42.8,49-110.3,121.7-138.6,152.3c-4.2-1-8.8-1.6-13.4-1.6
	c-31.9,0-57.9,26-57.9,57.9c0,10.9,3,20.9,8.2,29.6c-1,3.5-2.4,6.5-8.2,7.1c-10.3,1-23.7,0-23.7,0v5.8l23.7,3.8H523
	c0,0,6.5,2,13.7,1.7c5.6,3.8,12.1,6.8,19.1,8.3c0.6,8.6,3.8,16.5-6.8,22.6c-11.6,6.8-24,7.6-21.2,15.4c2.8,7.6,11.6,28.8,25,25
	c1.4-0.4,2.7-0.8,3.8-1.3l230.3,20.6C741,1114.7,660.7,1162.4,569.1,1162.4z M828.6,1039.5c1.1-2.3,2.3-4.4,3.4-6.6
	c3.5,3,7.3,5.5,11.3,7.9L828.6,1039.5z M863.3,740.5c1.8-1.6,3.7-3.1,5.5-4.5c20.6-16.9,39.5-37.3,58.3-55.9
	c9-8.9,32.5-28.2,40.5-36.6c-7.3,8-15.2,33.3-17.4,45.5c-1.8,10.6-12.4,52.4-18.6,60.1c-4.8-3.5-8.3,11.6-9.6,15.5
	c-2.1,6.5-3.4,12.8-6.5,19.2c-2,4-13.1,29.2-18.6,50.4C890.2,817.8,877.4,781.4,863.3,740.5z M1000.1,906.9c6.4,1,12.7,1.6,19.2,1.6
	c5.8,0,11.4,0.4,17.1,0.8l-47,11.2C992.5,916.5,996.1,912,1000.1,906.9z M1093.3,863.3c-7.3-1.4-15.1-2-22.2-3.8
	c-9.3-2.4-18.6-5.1-27.8-7.8c62.3-79.5,147-187.8,153.6-196.8c10.6-14.4,22-14.4,30.8-14.4s14.4,7.6,14.4,7.6l3.7,6.8
	c-72.7,44.8-124.2,120.4-136.5,208.7C1104.1,862.9,1098.2,864.3,1093.3,863.3z M1398.9,1162.4c-142.6,0-258.1-115.6-258.1-258.2
	c0-92.3,48.6-173.4,121.4-219l116.3,212.6c-0.7,2.1-1,4.2-1,6.5c0,11.9,9.6,21.5,21.5,21.5c11.9,0,21.5-9.6,21.5-21.5
	c0-10.4-7.5-19.2-17.5-21l-102.4-217.7c30.4-12.6,63.5-19.3,98.4-19.3c142.6,0,258.1,115.6,258.1,258.2S1541.5,1162.4,1398.9,1162.4
	z"/>
</svg>
